<svg width="44" height="44" viewBox="0 0 44 44" fill="none" xmlns="http://www.w3.org/2000/svg">
<circle cx="22" cy="22" r="22" fill="#7A66CC"/>
<g clip-path="url(#clip0_210_2)">
<path d="M17.078 32.55C16.605 32.234 16.185 31.847 15.834 31.4C15.451 30.937 15.096 30.45 14.77 29.946C14.004 28.826 13.405 27.601 12.99 26.31C12.49 24.808 12.247 23.37 12.247 21.963C12.247 20.393 12.587 19.023 13.249 17.873C13.739 16.973 14.469 16.22 15.349 15.691C16.199 15.161 17.189 14.871 18.189 14.851C18.539 14.851 18.919 14.901 19.319 15.001C19.609 15.081 19.959 15.211 20.389 15.371C20.939 15.581 21.239 15.711 21.339 15.741C21.659 15.861 21.929 15.911 22.139 15.911C22.299 15.911 22.529 15.861 22.784 15.781C22.929 15.731 23.204 15.641 23.594 15.471C23.98 15.331 24.286 15.211 24.529 15.121C24.899 15.011 25.257 14.911 25.579 14.861C25.969 14.801 26.356 14.781 26.727 14.811C27.437 14.861 28.087 15.011 28.667 15.231C29.687 15.641 30.51 16.281 31.124 17.191C30.864 17.351 30.624 17.537 30.399 17.741C29.912 18.171 29.499 18.681 29.169 19.246C28.739 20.016 28.519 20.886 28.525 21.766C28.54 22.849 28.815 23.801 29.365 24.626C29.752 25.226 30.269 25.74 30.899 26.162C31.209 26.372 31.481 26.517 31.739 26.612C31.619 26.987 31.487 27.352 31.334 27.712C30.987 28.519 30.574 29.292 30.084 30.022C29.652 30.652 29.312 31.122 29.054 31.432C28.652 31.912 28.264 32.272 27.874 32.529C27.444 32.814 26.939 32.965 26.422 32.965C26.072 32.98 25.722 32.935 25.388 32.838C25.098 32.743 24.812 32.636 24.532 32.515C24.239 32.381 23.936 32.267 23.627 32.175C23.247 32.075 22.857 32.027 22.463 32.028C22.063 32.028 21.673 32.078 21.303 32.173C20.993 32.261 20.693 32.369 20.396 32.498C19.976 32.673 19.701 32.788 19.541 32.838C19.217 32.934 18.885 32.992 18.551 33.013C18.031 33.013 17.547 32.863 17.065 32.563L17.078 32.55ZM23.932 14.09C23.252 14.43 22.606 14.574 21.959 14.526C21.859 13.88 21.959 13.216 22.229 12.489C22.469 11.869 22.789 11.309 23.229 10.809C23.689 10.289 24.239 9.85902 24.859 9.54902C25.519 9.20902 26.149 9.02902 26.749 8.99902C26.829 9.67902 26.749 10.349 26.499 11.069C26.271 11.709 25.931 12.299 25.499 12.829C25.064 13.349 24.524 13.779 23.913 14.089L23.932 14.09Z" fill="white"/>
</g>
<defs>
<clipPath id="clip0_210_2">
<rect width="24" height="24" fill="white" transform="translate(10 9)"/>
</clipPath>
</defs>
</svg>
