<svg width="44" height="44" viewBox="0 0 44 44" fill="none" xmlns="http://www.w3.org/2000/svg">
<circle cx="22" cy="22" r="22" fill="#7A66CC"/>
<path d="M33.9981 21.9991C33.9981 15.3722 28.626 10 21.9991 10C15.3722 10 10 15.3722 10 21.9991C10 27.9882 14.3879 32.9522 20.1242 33.8524V25.4676H17.0776V21.9991H20.1242V19.3555C20.1242 16.3483 21.9156 14.6871 24.6564 14.6871C25.9692 14.6871 27.3424 14.9215 27.3424 14.9215V17.8744H25.8294C24.3388 17.8744 23.8739 18.7993 23.8739 19.7482V21.9991H27.2018L26.6698 25.4676H23.8739V33.8524C29.6103 32.9522 33.9981 27.9882 33.9981 21.9991Z" fill="white"/>
</svg>
