<svg width="44" height="44" viewBox="0 0 44 44" fill="none" xmlns="http://www.w3.org/2000/svg">
<circle cx="22" cy="22" r="22" fill="#7A66CC"/>
<g clip-path="url(#clip0_210_6)">
<path d="M33.954 14.5691C33.069 14.9581 32.124 15.2231 31.129 15.3441C32.143 14.7331 32.923 13.7701 33.292 12.6211C32.341 13.1761 31.287 13.5801 30.165 13.8051C29.269 12.8461 27.992 12.2461 26.574 12.2461C23.857 12.2461 21.654 14.4491 21.654 17.1631C21.654 17.5531 21.699 17.9281 21.781 18.2871C17.691 18.0941 14.066 16.1301 11.64 13.1611C11.213 13.8831 10.974 14.7221 10.974 15.6361C10.974 17.3461 11.844 18.8491 13.162 19.7321C12.355 19.7061 11.596 19.4841 10.934 19.1161V19.1771C10.934 21.5621 12.627 23.5511 14.88 24.0041C14.467 24.1151 14.031 24.1751 13.584 24.1751C13.27 24.1751 12.969 24.1451 12.668 24.0891C13.299 26.0421 15.113 27.4661 17.272 27.5061C15.592 28.8251 13.463 29.6111 11.17 29.6111C10.78 29.6111 10.391 29.5881 10 29.5441C12.189 30.9381 14.768 31.7531 17.557 31.7531C26.611 31.7531 31.556 24.2571 31.556 17.7671C31.556 17.5581 31.556 17.3471 31.541 17.1371C32.502 16.4481 33.341 15.5771 34.001 14.5891L33.954 14.5691Z" fill="white"/>
</g>
<defs>
<clipPath id="clip0_210_6">
<rect width="24" height="24" fill="white" transform="translate(10 10)"/>
</clipPath>
</defs>
</svg>
