<svg width="44" height="44" viewBox="0 0 44 44" fill="none" xmlns="http://www.w3.org/2000/svg">
<circle cx="22" cy="22" r="22" fill="#7A66CC"/>
<g clip-path="url(#clip0_210_5)">
<path d="M33.499 16.2031C33.3599 15.7046 33.0946 15.2504 32.7286 14.8844C32.3627 14.5185 31.9085 14.2531 31.41 14.1141C29.54 13.6131 22.01 13.6131 22.01 13.6131C22.01 13.6131 14.501 13.6031 12.611 14.1141C12.1126 14.2534 11.6585 14.5189 11.2927 14.8851C10.927 15.2512 10.6618 15.7055 10.523 16.2041C10.1682 18.1189 9.99312 20.0627 10 22.0101C9.99442 23.9504 10.1695 25.8871 10.523 27.7951C10.662 28.2934 10.9272 28.7475 11.2929 29.1135C11.6587 29.4794 12.1127 29.7448 12.611 29.8841C14.48 30.3861 22.011 30.3861 22.011 30.3861C22.011 30.3861 29.519 30.3861 31.41 29.8841C31.9086 29.7449 32.3629 29.4794 32.7288 29.1133C33.0948 28.7471 33.3601 28.2927 33.499 27.7941C33.8447 25.8857 34.0121 23.9494 33.999 22.0101C34.0136 20.0627 33.8462 18.1182 33.499 16.2021V16.2031ZM19.608 25.6031V18.4071L25.874 22.0111L19.608 25.6031Z" fill="white"/>
</g>
<defs>
<clipPath id="clip0_210_5">
<rect width="24" height="24" fill="white" transform="translate(10 10)"/>
</clipPath>
</defs>
</svg>
